<mxfile host="65bd71144e">
    <diagram id="XjpLyKJ38pJCFCIXoz8H" name="Page-1">
        <mxGraphModel dx="594" dy="561" grid="1" gridSize="10" guides="1" tooltips="1" connect="1" arrows="1" fold="1" page="1" pageScale="1" pageWidth="827" pageHeight="1169" math="0" shadow="0">
            <root>
                <mxCell id="0"/>
                <mxCell id="1" parent="0"/>
                <mxCell id="2" value="Volume of a pyramid" style="swimlane;fillColor=#d80073;fontColor=#ffffff;strokeColor=#A50040;startSize=30;" vertex="1" parent="1">
                    <mxGeometry x="60" y="100" width="480" height="270" as="geometry"/>
                </mxCell>
                <mxCell id="3" value="" style="whiteSpace=wrap;html=1;fillColor=#ffe6cc;strokeColor=#d79b00;" vertex="1" parent="1">
                    <mxGeometry x="60" y="130" width="480" height="240" as="geometry"/>
                </mxCell>
                <mxCell id="5" value="&lt;h1&gt;&lt;font color=&quot;#660066&quot;&gt;formula&lt;/font&gt;&lt;/h1&gt;&lt;p&gt;&lt;font color=&quot;#660066&quot;&gt;v = ( L x W x H) / 3&lt;/font&gt;&lt;/p&gt;" style="text;html=1;spacing=5;spacingTop=-20;whiteSpace=wrap;overflow=hidden;rounded=0;align=center;" vertex="1" parent="1">
                    <mxGeometry x="319" y="150" width="190" height="120" as="geometry"/>
                </mxCell>
                <mxCell id="6" value="Actor" style="shape=umlActor;verticalLabelPosition=bottom;verticalAlign=top;html=1;outlineConnect=0;fontColor=#660066;strokeColor=#33001A;" vertex="1" parent="1">
                    <mxGeometry x="399" y="240" width="30" height="60" as="geometry"/>
                </mxCell>
                <mxCell id="7" value="Please enter integers for dimensions:" style="text;html=1;strokeColor=none;fillColor=none;align=left;verticalAlign=middle;whiteSpace=wrap;rounded=0;fontColor=#660066;" vertex="1" parent="1">
                    <mxGeometry x="70" y="160" width="130" height="30" as="geometry"/>
                </mxCell>
                <mxCell id="8" value="Length:" style="text;html=1;strokeColor=none;fillColor=none;align=center;verticalAlign=middle;whiteSpace=wrap;rounded=0;fontColor=#660066;" vertex="1" parent="1">
                    <mxGeometry x="60" y="210" width="60" height="30" as="geometry"/>
                </mxCell>
                <mxCell id="9" value="Width:" style="text;html=1;strokeColor=none;fillColor=none;align=center;verticalAlign=middle;whiteSpace=wrap;rounded=0;fontColor=#660066;" vertex="1" parent="1">
                    <mxGeometry x="60" y="240" width="60" height="30" as="geometry"/>
                </mxCell>
                <mxCell id="10" value="Height:" style="text;html=1;strokeColor=none;fillColor=none;align=center;verticalAlign=middle;whiteSpace=wrap;rounded=0;fontColor=#660066;" vertex="1" parent="1">
                    <mxGeometry x="60" y="270" width="60" height="30" as="geometry"/>
                </mxCell>
                <mxCell id="12" value="" style="endArrow=none;html=1;fontColor=#660066;fillColor=#6a00ff;strokeColor=#3700CC;" edge="1" parent="1">
                    <mxGeometry width="50" height="50" relative="1" as="geometry">
                        <mxPoint x="120" y="230.5" as="sourcePoint"/>
                        <mxPoint x="180" y="230.5" as="targetPoint"/>
                    </mxGeometry>
                </mxCell>
                <mxCell id="13" value="" style="endArrow=none;html=1;fontColor=#660066;fillColor=#6a00ff;strokeColor=#3700CC;" edge="1" parent="1">
                    <mxGeometry width="50" height="50" relative="1" as="geometry">
                        <mxPoint x="119" y="260.5" as="sourcePoint"/>
                        <mxPoint x="179" y="260.5" as="targetPoint"/>
                    </mxGeometry>
                </mxCell>
                <mxCell id="14" value="" style="endArrow=none;html=1;fontColor=#660066;fillColor=#6a00ff;strokeColor=#3700CC;" edge="1" parent="1">
                    <mxGeometry width="50" height="50" relative="1" as="geometry">
                        <mxPoint x="124" y="288.5" as="sourcePoint"/>
                        <mxPoint x="184" y="288.5" as="targetPoint"/>
                    </mxGeometry>
                </mxCell>
                <mxCell id="16" value="button" style="rounded=1;whiteSpace=wrap;html=1;strokeColor=#FFC300;fillColor=#FFE600;fontColor=#000000;" vertex="1" parent="1">
                    <mxGeometry x="70" y="300" width="90" height="30" as="geometry"/>
                </mxCell>
            </root>
        </mxGraphModel>
    </diagram>
</mxfile>